<svg width="369" height="73" viewBox="0 0 369 73" fill="none" xmlns="http://www.w3.org/2000/svg">
<path d="M310.723 71.5V0H336.723C358.223 0 368.423 14.6 368.423 36C368.423 57.4 357.523 71.5 336.023 71.5H310.723ZM319.723 63.6H335.723C352.523 63.6 359.223 52.8 359.223 36C359.223 19.2 353.223 7.8 336.423 7.8H319.723V63.6Z" fill="black"/>
<path d="M282.516 72.9C269.616 72.9 261.516 65.9 261.516 49.3V48.3H270.416V49C270.416 61.7 274.416 65.5 282.816 65.5C290.016 65.5 294.216 61.8 294.216 52.8V0H303.216V53.4C303.216 64.8 296.316 72.9 282.516 72.9Z" fill="black"/>
<path d="M200.472 71.5L226.772 0H236.872L263.272 71.5H253.472L245.872 49.7H217.372L209.672 71.5H200.472ZM228.472 18.4L219.972 42.4H243.372L235.172 18.4C233.772 14.4 231.972 8.3 231.972 8.3H231.772C231.772 8.3 229.872 14.3 228.472 18.4Z" fill="black"/>
<path d="M140.628 71.5L166.928 0H177.028L203.428 71.5H193.628L186.028 49.7H157.528L149.828 71.5H140.628ZM168.628 18.4L160.128 42.4H183.528L175.328 18.4C173.928 14.4 172.128 8.3 172.128 8.3H171.928C171.928 8.3 170.028 14.3 168.628 18.4Z" fill="black"/>
<path d="M115.962 71.5V41.2L90.0617 0H100.062L120.562 34H120.762L141.562 0H151.162L124.962 41.4V71.5H115.962Z" fill="black"/>
<path d="M78.2078 71.5V0H87.2078V71.5H78.2078Z" fill="black"/>
<path d="M0 71.5V0H11.5L34.7 59.4H34.9L57.9 0H69.6V71.5H61V12.7H60.8C60.8 12.7 58.9 18.3 57.6 21.7L38 71.5H31.1L11.5 21.7C10.1 18.1 8.3 12.7 8.3 12.7H8.1V71.5H0Z" fill="black"/>
</svg>
